<?xml version="1.0" encoding="UTF-8" standalone="no"?>
<svg width="68px" height="88px" viewBox="0 0 68 88" version="1.1" xmlns="http://www.w3.org/2000/svg" xmlns:xlink="http://www.w3.org/1999/xlink">
    <!-- Generator: Sketch 48.2 (47327) - http://www.bohemiancoding.com/sketch -->
    <title>icon/bulb</title>
    <desc>Created with Sketch.</desc>
    <defs></defs>
    <g id="Symbols" stroke="none" stroke-width="1" fill="none" fill-rule="evenodd">
        <g id="icon/bulb" fill="#FF7945">
            <g id="004-idea" transform="translate(3.000000, 0.000000)">
                <path d="M17.1747087,75 L44.8252913,75 C44.8711476,74.1315789 44.9291312,73.1143566 45,72 L17,72 C17.0712478,73.1143566 17.1288524,74.1315789 17.1747087,75 Z" id="Fill-1"></path>
                <path d="M33.6203328,69 L33.6203328,51.9681009 C33.6203328,51.5637982 33.7360748,51.1683976 33.9523677,50.8293769 L37,46.0756677 L37,37.2748516 C37,36.3156528 36.4079072,35.4666172 35.5246508,35.1550445 L35.0302153,35 L31.7127594,37.5471068 C30.9937121,38.0994065 30.0062879,38.0994065 29.2883256,37.5471068 L25.969423,35 L25.4764343,35.1550445 C24.5920928,35.4666172 24,36.3156528 24,37.2748516 L24,46.0756677 L27.0476323,50.8293769 C27.2650103,51.1683976 27.3796672,51.5637982 27.3796672,51.9681009 L27.3796672,69 L33.6203328,69 Z" id="Fill-2"></path>
                <path d="M18,79 C18.9372989,87.9931715 26.7757052,88 31.5009403,88 C36.2242948,88 44.0642056,87.9931715 45,79 L18,79 Z" id="Fill-3"></path>
                <path d="M30.5010098,20 C29.1220616,20 28,21.1220616 28,22.5010098 C28,23.8783424 29.1220616,25 30.5010098,25 C31.8783424,25 33,23.8783424 33,22.5010098 C33,21.1220616 31.8783424,20 30.5010098,20 Z" id="Fill-4"></path>
                <path d="M30.5001881,0 C13.6820601,0 0,13.5771183 0,30.2633806 C0,39.0412618 4.717835,44.8675468 9.28140632,50.5023104 C10.7130486,52.268564 12.1932274,54.0956715 13.5247864,56.0078996 C15.000074,58.128076 15.8334742,63.9002272 16.3098103,69 L23.0469946,69 L23.0469946,52.4813657 L19.8766877,47.6966887 C19.6520648,47.3554594 19.5312876,46.9571096 19.5312876,46.5501731 L19.5312876,37.0681799 C19.5312876,34.2957851 21.312845,31.8444595 23.9627941,30.967866 C23.978973,30.962266 25.5750378,30.4765556 25.5750378,30.4765556 C26.2173015,30.2809274 26.9152506,30.4007683 27.4532922,30.8002381 L30.5001881,33.0648956 L33.5467078,30.8002381 C34.0847494,30.4007683 34.7815698,30.2809274 35.4253385,30.4765556 C35.4253385,30.4765556 37.0214032,30.962266 37.0375821,30.967866 C39.6875312,31.8444595 41.4687124,34.2957851 41.4687124,37.0681799 L41.4687124,46.5501731 C41.4687124,46.9571096 41.3483115,47.3554594 41.1233123,47.6966887 L37.9530054,52.4813657 L37.9530054,69 L44.6905659,69 C45.1665258,63.9002272 45.999926,58.128076 47.4755898,56.0078996 C48.8071488,54.0956715 50.2873277,52.268564 51.7185937,50.5023104 C56.282165,44.8675468 61,39.0412618 61,30.2633806 C61,13.5771183 47.3183161,0 30.5001881,0 Z M30.5001881,29.2953198 C26.8964379,29.2953198 23.9642992,26.3859106 23.9642992,22.8100963 C23.9642992,19.234282 26.8964379,16.3248728 30.5001881,16.3248728 C34.1039383,16.3248728 37.0360771,19.234282 37.0360771,22.8100963 C37.0360771,26.3859106 34.1039383,29.2953198 30.5001881,29.2953198 Z" id="Fill-5"></path>
            </g>
        </g>
    </g>
</svg>