<?xml version="1.0" encoding="UTF-8" standalone="no"?>
<svg width="68px" height="88px" viewBox="0 0 68 88" version="1.1" xmlns="http://www.w3.org/2000/svg" xmlns:xlink="http://www.w3.org/1999/xlink">
    <!-- Generator: Sketch 48.2 (47327) - http://www.bohemiancoding.com/sketch -->
    <title>icon/check</title>
    <desc>Created with Sketch.</desc>
    <defs></defs>
    <g id="Symbols" stroke="none" stroke-width="1" fill="none" fill-rule="evenodd">
        <g id="icon/check" fill="#4DB4B5">
            <path d="M63.4425687,28 L55.5528113,23.4444573 L50.9983368,15.5555427 L41.8891413,15.5555427 L33.9983984,11 L26.1088875,15.5555427 L16.999692,15.5555427 L12.4442319,23.4461822 L4.55546014,28 L4.55546014,37.1100997 L0,45 L4.55546014,52.8899003 L4.55546014,62 L12.4452175,66.5555427 L17.0006776,74.4454429 L26.1108587,74.4454429 L33.999384,79 L41.8891413,74.4444573 L50.9983368,74.4444573 L55.5537969,66.5548035 L63.4442935,61.9990144 L63.4442935,52.8889147 L68,44.9990144 L63.4442935,37.1093605 L63.4442935,28 L63.4425687,28 Z M31.4392269,59.0602898 C30.8075822,59.7001252 29.9741553,60.012325 29.1446608,59.9996279 C28.3151664,60.012325 27.4829684,59.7001252 26.8500948,59.0602898 L16.9317988,49.0131316 C15.6894004,47.7546227 15.6894004,45.7123777 16.9317988,44.4541178 L19.557671,41.7941951 C20.7998236,40.5356862 22.815188,40.5356862 24.0583237,41.7941951 L29.1446608,46.947484 L44.9426594,30.9438817 C46.184812,29.6853728 48.2001764,29.6853728 49.442329,30.9438817 L52.0682012,33.6038043 C53.3105996,34.8620642 53.3105996,36.9043092 52.0682012,38.1628181 L31.4392269,59.0602898 Z" id="001-check"></path>
        </g>
    </g>
</svg>