<?xml version="1.0" encoding="UTF-8" standalone="no"?>
<svg width="68px" height="88px" viewBox="0 0 68 88" version="1.1" xmlns="http://www.w3.org/2000/svg" xmlns:xlink="http://www.w3.org/1999/xlink">
    <!-- Generator: Sketch 48.2 (47327) - http://www.bohemiancoding.com/sketch -->
    <title>icon/earth</title>
    <desc>Created with Sketch.</desc>
    <defs></defs>
    <g id="Symbols" stroke="none" stroke-width="1" fill="none" fill-rule="evenodd">
        <g id="icon/earth" fill="#214391">
            <g id="006-planet-1">
                <path d="M67.0203557,56.2767989 C68.3265481,54.9767698 68.3265481,52.8687075 67.0203557,51.5686785 L63.1880813,47.7525958 C61.7873874,49.4874718 60.2011426,51.0667998 58.4591212,52.4607163 L59.8076019,53.8034995 C54.0218644,58.5017371 46.8386694,61.0545292 39.2517931,61.0545292 C30.5380184,61.0545292 22.3552216,57.6859694 16.2119748,51.5686785 C4.30586081,39.712869 3.55740007,20.8894108 13.9685344,8.15896601 L15.3161521,9.5008899 C16.716846,7.76622876 18.3030909,6.18690078 20.0442492,4.7919101 L16.2119748,0.975182924 C15.5858482,0.350842413 14.7346872,0 13.8479263,0 C12.9613811,0 12.1102201,0.350842413 11.4838777,0.975182924 C-3.82795924,16.2225407 -3.82795924,41.0303005 11.4838777,56.2767989 C18.3410641,63.1056575 27.3042537,67.0912531 36.9298171,67.644265 L36.9298171,73.3494825 L36.4629192,73.3494825 C29.83012,73.3494825 24.4336079,78.7272758 24.4336079,85.3320508 C24.4336079,86.8033115 25.6312746,88 27.1085622,88 L54.0665261,88 C55.5438137,88 56.7414804,86.8033115 56.7414804,85.3320508 C56.7414804,78.7272758 51.3449683,73.3494825 44.7121692,73.3494825 L43.6174186,73.3494825 L43.6174186,67.474752 C52.4634522,66.5096668 60.6503485,62.6198922 67.0203557,56.2767989 Z" id="Fill-1"></path>
                <path d="M58.9448008,8.90855902 C53.7514143,3.80872483 46.8457172,1 39.4996743,1 C32.1542828,1 25.2485857,3.80872483 20.0543306,8.90855902 C14.8600756,14.0075405 12,20.7879195 12,28.0004264 C12,35.2120805 14.8600756,41.9924595 20.0543306,47.0922937 C25.2485857,52.1921279 32.1542828,55 39.4996743,55 C46.8457172,55 53.7514143,52.1912752 58.9448008,47.0922937 C64.1399244,41.9924595 67,35.2120805 67,28.0004264 C67,20.7879195 64.1399244,14.0075405 58.9448008,8.90855902 Z" id="Fill-3"></path>
            </g>
        </g>
    </g>
</svg>