<?xml version="1.0" encoding="UTF-8" standalone="no"?>
<svg width="68px" height="70px" viewBox="0 0 68 70" version="1.1" xmlns="http://www.w3.org/2000/svg" xmlns:xlink="http://www.w3.org/1999/xlink">
    <!-- Generator: Sketch 48.2 (47327) - http://www.bohemiancoding.com/sketch -->
    <title>icon/info</title>
    <desc>Created with Sketch.</desc>
    <defs>
        <polygon id="path-1" points="0.0116239316 0.178233618 67.8213789 0.178233618 67.8213789 67.9996125 0.0116239316 67.9996125"></polygon>
    </defs>
    <g id="Symbols" stroke="none" stroke-width="1" fill="none" fill-rule="evenodd">
        <g id="icon/info">
            <g id="001-information">
                <g id="Group-5">
                    <mask id="mask-2" fill="white">
                        <use xlink:href="#path-1"></use>
                    </mask>
                    <g id="Clip-3"></g>
                    <path d="M33.9106895,0.178233618 C52.6331624,0.178233618 67.8213789,15.3664501 67.8213789,34.0889231 C67.8213789,52.811396 52.6331624,67.9996125 33.9106895,67.9996125 C15.1882165,67.9996125 0,52.811396 0,34.0889231 C0,15.3664501 15.1882165,0.178233618 33.9106895,0.178233618 Z M38.6844444,44.9999202 L37.2585755,44.9999202 L37.2585755,29.8117037 C37.2585755,28.9435897 36.5768319,28.1998519 35.6467236,28.1998519 L29.1369345,28.1998519 C28.2697892,28.1998519 27.5250826,28.8815954 27.5250826,29.8117037 L27.5250826,33.1588148 C27.5250826,34.0269288 28.2077949,34.7708604 29.1369345,34.7708604 L30.439396,34.7708604 L30.439396,45.0621083 L29.1369345,45.0621083 C28.2697892,45.0621083 27.5250826,45.7438519 27.5250826,46.6739601 L27.5250826,50.0218462 C27.5250826,50.8899601 28.2077949,51.6338917 29.1369345,51.6338917 L38.6844444,51.6338917 C39.5523647,51.6338917 40.2962963,50.9511795 40.2962963,50.0218462 L40.2962963,46.6739601 C40.2962963,45.7438519 39.5523647,44.9999202 38.6844444,44.9999202 Z M29.3428837,22.292958 C29.4805096,22.564064 29.6179207,22.8349585 29.7555465,23.0381823 C29.8931724,23.2405602 30.098645,23.4437839 30.2360561,23.6470077 C30.4423875,23.8502314 30.6487189,24.0526093 30.9231118,24.2558331 C31.1294432,24.3911746 31.4044802,24.5943984 31.7473639,24.6620691 C32.0226156,24.7967762 32.2976526,24.864447 32.640751,24.9323292 C32.9844935,25 33.2595305,25 33.5339234,25 C33.8089604,25 34.1529176,25 34.4270958,24.9323292 C34.7021327,24.864447 34.9771697,24.7967762 35.1826423,24.6620691 L35.2515626,24.6620691 C35.5265996,24.5267276 35.8016365,24.3911746 36.0760294,24.1879508 C36.2823608,24.0526093 36.4884775,23.8502314 36.6948089,23.6470077 L36.7637292,23.5791254 C36.9692018,23.3759017 37.1066129,23.1726779 37.2442388,22.9703001 C37.3818646,22.7670763 37.5192757,22.564064 37.588196,22.292958 C37.588196,22.2261331 37.588196,22.2261331 37.6569016,22.1584624 C37.7936686,21.8873564 37.8623742,21.5487911 37.9310797,21.278531 C38,21.0076365 38,20.6690712 38,20.3988111 C38,20.1279165 38,19.7891398 37.9310797,19.5190911 C37.8623742,19.2481966 37.7936686,18.9773021 37.6569016,18.6393712 C37.4505702,18.1652529 37.1755332,17.7596513 36.8315759,17.4208746 L36.6948089,17.285533 C36.4884775,17.0831551 36.2823608,16.9476022 36.0071091,16.7443784 C35.732931,16.6088254 35.5265996,16.4734839 35.2515626,16.3379309 C34.9771697,16.2032238 34.7021327,16.135553 34.4270958,16.0678822 C34.0839973,16 33.8089604,16 33.5339234,16 C33.2595305,16 32.915788,16 32.640751,16.0678822 C32.3663581,16.135553 32.0913212,16.2032238 31.8162842,16.3379309 L31.7473639,16.3379309 C31.4731857,16.4734839 31.1981488,16.6088254 30.9918174,16.7443784 C30.7176392,16.9476022 30.5113078,17.0831551 30.3049764,17.285533 C30.098645,17.4887568 29.8931724,17.6917691 29.7555465,17.8949928 C29.6179207,18.0973707 29.4805096,18.3684767 29.3428837,18.6393712 C29.2054726,18.9094199 29.1365523,19.1805259 29.0687056,19.4514204 C29,19.7891398 29,20.0602458 29,20.3311403 C29,20.6011889 29,20.9399657 29.0687056,21.2108602 C29.1365523,21.7520148 29.2741782,22.0229094 29.3428837,22.292958 Z" id="Combined-Shape" fill="#FFFFFF"></path>
                </g>
            </g>
        </g>
    </g>
</svg>