<?xml version="1.0" encoding="UTF-8" standalone="no"?>
<svg width="68px" height="70px" viewBox="0 0 68 70" version="1.1" xmlns="http://www.w3.org/2000/svg" xmlns:xlink="http://www.w3.org/1999/xlink">
    <!-- Generator: Sketch 48.2 (47327) - http://www.bohemiancoding.com/sketch -->
    <title>icon/school</title>
    <desc>Created with Sketch.</desc>
    <defs>
        <polygon id="path-1" points="0 0 68 0 68 68 0 68"></polygon>
    </defs>
    <g id="Symbols" stroke="none" stroke-width="1" fill="none" fill-rule="evenodd">
        <g id="icon/school">
            <g id="014-school">
                <mask id="mask-2" fill="white">
                    <use xlink:href="#path-1"></use>
                </mask>
                <g id="Clip-2"></g>
                <path d="M67.383773,21.2233349 L53.3968984,34.6962852 L50.5271083,31.6597122 L61.1077833,21.4618654 C62.1350072,20.4782623 62.1671918,18.8460708 61.1694703,17.8303063 L51.7313473,8.03179698 C51.2485789,7.53865537 50.5995235,7.25724305 49.9182836,7.24652258 C49.2370437,7.23580211 48.5772602,7.4957735 48.0864456,7.96747416 L39.7452797,15.997106 L46.9841243,23.4933944 C47.5822208,24.1125015 47.5285798,25.1389865 46.911709,25.7339725 C46.4718534,26.1520709 45.8442544,26.2887568 45.2971168,26.1118691 L34.7888571,14.9813415 L48.5343474,1.71744034 C49.3738281,0.921445463 50.7148515,0.975047812 51.5114195,1.80052398 L67.4052294,18.2591251 C68.2017973,19.0872813 68.2017973,20.42734 67.383773,21.2233349 Z M19.914225,61.1731652 C19.4207284,61.6448659 18.7609448,61.9048372 18.0797049,61.8833963 C17.398465,61.875356 16.7494097,61.5912635 16.2666412,61.0981219 L6.82851821,51.3103331 C5.844207,50.2838481 5.86298133,48.6730975 6.89020529,47.678774 L11.2270751,52.1894116 C11.8358998,52.8085187 12.8094828,52.8299597 13.4397638,52.2322935 C14.0566346,51.6453478 14.0673628,50.6617447 13.4692663,50.0426375 L9.12166831,45.5212795 L10.2856767,44.4117108 L14.6332747,48.9250286 C15.2206429,49.5307351 16.2049542,49.5521761 16.8325531,48.9652303 C17.452106,48.3595238 17.4628342,47.3839611 16.8647377,46.7568136 L12.5171397,42.2542163 L13.678466,41.1339272 L18.0180179,45.647245 C18.6134323,46.263672 19.6084717,46.2851129 20.2172963,45.6874467 C20.8448953,45.0924607 20.8556235,44.119578 20.257527,43.4897505 L15.909929,38.9871532 L17.0739374,37.8695442 L21.4108072,42.3694614 C22.0089036,42.999289 22.9932148,43.0180498 23.6100856,42.4230637 C23.8407417,42.1925736 23.9989824,41.9192016 24.0526234,41.6270688 L16.0145288,33.093575 L0.61421556,47.9199845 C-0.201126696,48.7132993 -0.201126696,50.053358 0.592759185,50.8815143 L16.4758409,67.3508358 C17.283137,68.176312 18.6241605,68.2299144 19.4421848,67.423199 L34.611842,52.8192392 L31.7420518,49.7719457 L19.914225,61.1731652 Z M47.6653642,20.6980319 C45.6645572,18.6370216 45.7289264,15.3163561 47.8021486,13.3169885 C49.8673247,11.3176209 53.1876988,11.3819438 55.1885058,13.4536745 C57.1893127,15.5280854 57.1168975,18.8460708 55.0517214,20.8347179 C52.9892273,22.8340855 49.6768994,22.7724428 47.6653642,20.6980319 Z M49.9182836,18.5432175 C50.7255797,19.3686937 52.0451468,19.3901346 52.8926736,18.5941397 C53.7214261,17.7874244 53.7428825,16.4473657 52.9355864,15.6218895 C52.1282903,14.7937332 50.797995,14.7615718 49.9719246,15.5682872 C49.1324439,16.364282 49.1109875,17.7043407 49.9182836,18.5432175 Z M58.3533211,45.2800689 L44.680246,58.1473126 L14.2041472,25.8384971 L27.8852684,12.963213 L58.3533211,45.2800689 Z M30.1811005,21.9764479 C30.1811005,21.6628742 30.0765007,21.3573408 29.8565728,21.1375712 L28.3680368,19.5563019 C27.9174529,19.0872813 27.174526,19.0658404 26.7024857,19.5053797 L25.8951896,20.2692131 C25.4231493,20.7087524 25.401693,21.4618654 25.8442307,21.9228456 L27.3193565,23.5148353 C27.5392843,23.7346049 27.8343095,23.8712909 28.148109,23.8820114 C28.4619085,23.8927319 29.8029319,22.8019241 29.8029319,22.8019241 C30.0335879,22.5821545 30.1596441,22.2900217 30.1811005,21.9764479 Z M51.3424505,45.647245 C51.825219,45.1969852 51.8359471,44.4545927 51.3960915,43.9828921 L34.2765861,25.8277767 C34.0566583,25.5972866 33.7643152,25.4632807 33.4478336,25.4632807 C33.1447623,25.4525602 32.8309629,25.5678053 32.611035,25.7768544 L31.8037389,26.5406879 C31.3236525,26.9802271 31.3021961,27.7226197 31.75278,28.1943203 L48.8696033,46.3494357 C49.0895311,46.5799258 49.3845563,46.7139317 49.6983558,46.7246522 C50.0121553,46.7353726 50.3179086,46.6201276 50.5458826,46.400358 L51.3424505,45.647245 Z M12.820211,24.3617524 L26.493286,11.4864683 L22.9610303,7.74770453 L9.29063726,20.6256687 L12.820211,24.3617524 Z M3.19166263,14.1558653 C2.44873564,13.3705909 2.04911065,12.322665 2.08129521,11.2452578 C2.12420796,10.1678506 2.57479184,9.15208606 3.36063158,8.40701342 L11.1117471,1.1117338 C12.7477957,-0.437374069 15.3252428,-0.354290429 16.8647377,1.27790108 L21.6629196,6.36744406 L7.98984452,19.2427281 L3.19166263,14.1558653 Z M5.6323253,11.3497823 L8.14808529,14.0191793 L16.4356102,6.2200376 L13.9198502,3.55064065 L5.6323253,11.3497823 Z M65.2890944,63.6656744 C65.5197504,64.4080669 65.3078687,65.2147823 64.752685,65.7481256 C64.178727,66.281469 63.3607027,66.4395959 62.63655,66.1662239 L46.4074842,59.9805129 L60.0698311,47.0918283 L65.2890944,63.6656744 Z M60.9495425,58.1044307 L58.8977766,51.5944255 L50.9562358,59.0799935 L57.3475535,61.5081799 L60.9495425,58.1044307 Z" id="Fill-1" fill="#FFFFFF" mask="url(#mask-2)"></path>
            </g>
        </g>
    </g>
</svg>