<?xml version="1.0" encoding="utf-8"?>
<!-- Generator: Adobe Illustrator 16.0.0, SVG Export Plug-In . SVG Version: 6.00 Build 0)  -->
<!DOCTYPE svg PUBLIC "-//W3C//DTD SVG 1.1//EN" "http://www.w3.org/Graphics/SVG/1.1/DTD/svg11.dtd">
<svg version="1.1" id="Layer_1" xmlns="http://www.w3.org/2000/svg" xmlns:xlink="http://www.w3.org/1999/xlink" x="0px" y="0px"
	 width="125px" height="25px" viewBox="657.5 419.5 125 25" enable-background="new 657.5 419.5 125 25" xml:space="preserve">
<title>eie.orgArtboard 1</title>
<path fill="#FFFFFF" stroke="#FFFFFF" stroke-width="0.5" stroke-miterlimit="10" d="M670.498,426.766
	c-1.971-0.009-3.576,1.581-3.585,3.551c-0.003,0.703,0.201,1.392,0.588,1.979c-5.281,4.383-5.788,8.308-5.824,8.621h3.533
	c-0.314-3.383,1.213-5.795,3.247-7.636c1.613,1.132,3.838,0.743,4.971-0.87c0.591-0.842,0.79-1.898,0.546-2.898
	c1.968-1.207,4.148-2.03,6.423-2.426v-1.906c-2.436,0.794-4.788,1.824-7.022,3.076c-0.669-0.935-1.748-1.49-2.897-1.492"/>
<path fill="#EA352E" stroke="#EA352E" stroke-width="0.5" stroke-miterlimit="10" d="M674.074,430.342
	c0.01,1.971-1.579,3.576-3.55,3.587c-0.739,0.003-1.461-0.222-2.067-0.646c-2.034,1.841-3.568,4.282-3.247,7.636h15.208v-13.831
	c-2.275,0.396-4.455,1.219-6.423,2.426c0.066,0.271,0.099,0.549,0.1,0.828"/>
<path fill="#EA352E" stroke="#EA352E" stroke-width="0.5" stroke-miterlimit="10" d="M660,420.5v20.418h1.677
	c0-0.313,0.542-4.238,5.824-8.621c-1.118-1.627-0.704-3.853,0.924-4.971c1.628-1.117,3.854-0.704,4.971,0.924
	c2.237-1.246,4.588-2.274,7.022-3.069V420.5H660z"/>
<polygon fill="#FFFFFF" points="693.572,427.08 693.572,434.018 692.301,434.018 692.422,428.322 690.931,434.018 689.761,434.018 
	688.255,428.322 688.383,434.018 687.113,434.018 687.113,427.08 689.004,427.08 690.36,432.226 691.688,427.08 "/>
<path fill="#FFFFFF" d="M699.424,429.107v4.911h-1.178v-0.5c-0.426,0.411-1,0.633-1.591,0.613c-0.519,0.043-1.026-0.168-1.363-0.563
	c-0.302-0.493-0.417-1.078-0.321-1.648v-2.854h1.192v2.854c-0.009,0.163,0.003,0.325,0.036,0.485c0.118,0.398,0.5,0.658,0.914,0.621
	c0.389,0.01,0.754-0.188,0.957-0.521c0.167-0.41,0.229-0.857,0.178-1.299v-2.098H699.424z"/>
<path fill="#FFFFFF" d="M701.165,432.562c0.347,0.427,0.878,0.661,1.427,0.628c0.714,0,0.978-0.336,0.978-0.578
	s-0.357-0.393-0.514-0.421c-0.157-0.028-0.971-0.187-1.149-0.235c-1.17-0.279-1.384-0.957-1.384-1.428
	c0-0.835,0.756-1.599,2.098-1.599c0.578-0.014,1.146,0.15,1.627,0.471c0.188,0.121,0.357,0.27,0.5,0.443l-0.835,0.778
	c-0.254-0.496-0.78-0.791-1.335-0.75c-0.563,0-0.821,0.243-0.821,0.5s0.364,0.457,0.992,0.564c1.021,0.186,1.306,0.235,1.62,0.478
	c0.319,0.252,0.506,0.636,0.507,1.042c0,0.771-0.714,1.685-2.212,1.685c-0.87,0.025-1.714-0.29-2.355-0.878L701.165,432.562z"/>
<path fill="#FFFFFF" d="M709.116,430.934c-0.007-0.58-0.483-1.043-1.062-1.036c-0.013,0-0.025,0-0.037,0.001
	c-0.609-0.022-1.132,0.429-1.199,1.035H709.116z M710.45,432.918c-0.541,0.79-1.441,1.256-2.398,1.242
	c-1.339,0.059-2.472-0.979-2.532-2.316c-0.005-0.102-0.003-0.202,0.005-0.303c-0.119-1.304,0.841-2.457,2.144-2.576
	c0.101-0.009,0.203-0.012,0.304-0.008c0.76-0.046,1.491,0.301,1.934,0.921c0.34,0.582,0.516,1.246,0.507,1.92h-3.64
	c0.061,0.728,0.699,1.271,1.427,1.213c0.524,0.015,1.015-0.259,1.277-0.714L710.45,432.918z"/>
<path fill="#FFFFFF" d="M715.795,429.107v4.911h-1.177v-0.5c-0.427,0.41-1,0.631-1.592,0.613c-0.52,0.041-1.029-0.168-1.37-0.563
	c-0.301-0.493-0.417-1.077-0.328-1.648v-2.854h1.185v2.854c-0.01,0.163,0.004,0.327,0.043,0.485c0.115,0.4,0.499,0.661,0.914,0.621
	c0.387,0.011,0.75-0.188,0.949-0.521c0.172-0.41,0.241-0.855,0.2-1.299v-2.098H715.795z"/>
<path fill="#FFFFFF" d="M717.095,429.107h1.17v0.55c0.392-0.447,0.955-0.706,1.549-0.714c0.561-0.019,1.086,0.271,1.37,0.756
	c0.37-0.492,0.955-0.773,1.57-0.756c0.484-0.026,0.957,0.156,1.299,0.5c0.305,0.409,0.441,0.921,0.379,1.428v3.097h-1.192v-2.711
	c0-0.464,0.071-1.242-0.821-1.242c-0.34-0.001-0.656,0.175-0.834,0.464c-0.197,0.359-0.286,0.769-0.258,1.177v2.312h-1.17v-2.69
	c0.014-0.21,0.001-0.421-0.036-0.628c-0.081-0.35-0.397-0.594-0.756-0.585c-0.384,0.012-0.73,0.23-0.907,0.571
	c-0.178,0.418-0.252,0.874-0.214,1.328v2.056h-1.149V429.107z"/>
<path fill="#FFFFFF" d="M730.541,430.021c-0.729,0.025-1.3,0.637-1.274,1.365c0.001,0.042,0.005,0.084,0.011,0.126
	c-0.081,0.785,0.489,1.486,1.273,1.566c0.016,0.002,0.031,0.003,0.047,0.004c0.856,0,1.291-0.713,1.264-1.562
	c0.066-0.758-0.492-1.427-1.25-1.495C730.588,430.023,730.564,430.021,730.541,430.021 M730.598,434.167
	c-1.371,0.038-2.514-1.043-2.551-2.414c-0.002-0.071-0.002-0.142,0.003-0.212c-0.074-1.394,0.995-2.583,2.388-2.657
	c1.395-0.074,2.584,0.995,2.658,2.389c0.004,0.089,0.004,0.179,0,0.269c0.094,1.353-0.926,2.525-2.277,2.621
	C730.744,434.166,730.671,434.168,730.598,434.167"/>
<path fill="#FFFFFF" d="M735.387,429.942v4.076h-1.164v-4.076h-0.713v-0.877h0.713v-0.557c0-0.714,0-1.428,1.578-1.428
	c0.223-0.011,0.447-0.011,0.67,0v0.999c-0.123-0.009-0.247-0.009-0.371,0c-0.236-0.036-0.475,0.06-0.621,0.25
	c-0.055,0.113-0.082,0.238-0.078,0.364v0.372h1.07v0.849L735.387,429.942z"/>
<path fill="#FFFFFF" d="M740.482,431.955c0.467,0.717,1.288,1.119,2.141,1.049c0.242,0.004,0.484-0.035,0.713-0.114
	c0.354-0.104,0.596-0.431,0.594-0.8c0.012-0.33-0.204-0.625-0.521-0.713c-0.25-0.079-0.505-0.136-0.764-0.171l-0.835-0.171
	c-0.296-0.062-0.587-0.146-0.871-0.25c-0.722-0.259-1.194-0.954-1.171-1.72c0-1.313,1.107-2.141,2.741-2.141
	c1.113-0.035,2.167,0.504,2.79,1.427l-1.084,0.756c-0.359-0.653-1.053-1.052-1.799-1.035c-0.714,0-1.307,0.314-1.307,0.842
	c0,0.528,0.65,0.714,1.277,0.828l0.715,0.157c0.928,0.2,2.248,0.578,2.248,2.062c0,1.591-1.478,2.233-2.947,2.233
	c-0.42,0.002-0.837-0.051-1.242-0.156c-0.737-0.209-1.373-0.679-1.791-1.32L740.482,431.955z"/>
<path fill="#FFFFFF" d="M749.503,430.841c-0.142-0.497-0.597-0.838-1.113-0.835c-0.671,0-1.214,0.542-1.214,1.527
	c0,0.985,0.457,1.527,1.235,1.527c0.567-0.012,1.053-0.41,1.177-0.963l1.05,0.535c-0.337,0.93-1.224,1.545-2.212,1.534
	c-1.353-0.005-2.444-1.104-2.439-2.457c0-0.05,0.002-0.099,0.006-0.147c-0.067-1.371,0.988-2.535,2.359-2.603
	c0.039-0.002,0.077-0.003,0.117-0.003c0.939-0.014,1.791,0.554,2.141,1.428L749.503,430.841z"/>
<path fill="#FFFFFF" d="M752.443,434.018h-1.17v-4.911h1.17V434.018z M752.443,428.308h-1.17v-1.156h1.17V428.308z"/>
<path fill="#FFFFFF" d="M757.011,430.934c-0.007-0.58-0.483-1.043-1.062-1.036c-0.013,0-0.025,0-0.037,0.001
	c-0.609-0.022-1.133,0.429-1.199,1.035H757.011z M758.346,432.918c-0.541,0.79-1.441,1.256-2.398,1.242
	c-1.339,0.059-2.473-0.979-2.531-2.316c-0.005-0.102-0.003-0.202,0.005-0.303c-0.119-1.304,0.841-2.457,2.144-2.576
	c0.102-0.009,0.203-0.012,0.305-0.008c0.75-0.037,1.468,0.311,1.905,0.921c0.341,0.582,0.516,1.246,0.507,1.92h-3.64
	c0.061,0.728,0.698,1.271,1.427,1.213c0.525,0.015,1.016-0.259,1.277-0.714L758.346,432.918z"/>
<path fill="#FFFFFF" d="M759.201,429.107h1.192v0.578c0.097-0.155,0.226-0.286,0.378-0.385c0.338-0.222,0.731-0.341,1.135-0.343
	c0.497-0.011,0.971,0.208,1.285,0.593c0.27,0.479,0.377,1.032,0.307,1.577v2.891h-1.17v-2.506c0.012-0.238-0.002-0.478-0.043-0.713
	c-0.073-0.386-0.414-0.664-0.807-0.656c-0.377,0.005-0.723,0.216-0.899,0.549c-0.151,0.391-0.214,0.81-0.186,1.228v2.142h-1.192
	V429.107z"/>
<path fill="#FFFFFF" d="M767.916,430.841c-0.144-0.496-0.598-0.836-1.113-0.835c-0.714,0-1.213,0.542-1.213,1.527
	c0,0.985,0.456,1.527,1.234,1.527c0.566-0.012,1.053-0.41,1.178-0.963l1.014,0.535c-0.339,0.928-1.225,1.543-2.213,1.534
	c-1.352-0.005-2.443-1.104-2.439-2.457c0.001-0.05,0.002-0.099,0.006-0.147c-0.067-1.371,0.988-2.535,2.359-2.603
	c0.039-0.002,0.078-0.003,0.117-0.003c0.939-0.012,1.79,0.555,2.141,1.428L767.916,430.841z"/>
<path fill="#FFFFFF" d="M772.969,430.934c-0.012-0.583-0.493-1.047-1.076-1.036c-0.01,0-0.02,0-0.03,0.001
	c-0.607-0.019-1.128,0.431-1.198,1.035H772.969z M774.303,432.918c-0.54,0.79-1.44,1.256-2.397,1.242
	c-1.335,0.063-2.468-0.967-2.532-2.301c-0.005-0.106-0.003-0.213,0.006-0.318c-0.119-1.304,0.841-2.457,2.144-2.576
	c0.102-0.009,0.203-0.012,0.304-0.008c0.76-0.043,1.49,0.304,1.935,0.921c0.339,0.583,0.511,1.246,0.499,1.92h-3.639
	c0.061,0.728,0.698,1.271,1.428,1.213c0.523,0.015,1.015-0.259,1.277-0.714L774.303,432.918z"/>
<path fill="#FFFFFF" d="M775.617,434.21c-0.367,0-0.664-0.298-0.664-0.663c0-0.367,0.297-0.664,0.664-0.664
	c0.365,0,0.663,0.297,0.663,0.663l0,0C776.28,433.912,775.982,434.21,775.617,434.21z M775.617,433.011
	c-0.301,0-0.543,0.243-0.543,0.542c0,0.301,0.242,0.543,0.543,0.543c0.299,0,0.542-0.243,0.541-0.543c0-0.002,0-0.004,0-0.007
	C776.154,433.25,775.913,433.011,775.617,433.011z"/>
<path fill="#FFFFFF" d="M775.445,433.525h0.235c0.047-0.011,0.079-0.053,0.079-0.101c0.012-0.027,0.012-0.058,0-0.086
	c0,0-0.072,0-0.122,0h-0.157L775.445,433.525z M775.445,433.589v0.257h-0.078v-0.606h0.25c0.06-0.021,0.125-0.021,0.186,0
	c0.039,0.036,0.061,0.089,0.057,0.143c0.008,0.083-0.053,0.155-0.135,0.163c-0.003,0.001-0.006,0.001-0.008,0.001l0.171,0.265
	h-0.093l-0.172-0.258L775.445,433.589z"/>
</svg>
