<?xml version="1.0" encoding="UTF-8" standalone="no"?>
<svg width="40px" height="40px" viewBox="0 0 40 40" version="1.1" xmlns="http://www.w3.org/2000/svg" xmlns:xlink="http://www.w3.org/1999/xlink">
    <!-- Generator: Sketch 48.2 (47327) - http://www.bohemiancoding.com/sketch -->
    <title>Search</title>
    <desc>Created with Sketch.</desc>
    <defs></defs>
    <g id="Symbols" stroke="none" stroke-width="1" fill="none" fill-rule="evenodd">
        <g id="Search" fill="#EE3124" stroke="#EE3124" stroke-width="0.5">
            <path d="M25.6896552,17.4137931 C25.6896552,15.1354566 24.8799342,13.1865845 23.260468,11.5671182 C21.6410018,9.947652 19.6921296,9.13793103 17.4137931,9.13793103 C15.1354566,9.13793103 13.1865845,9.947652 11.5671182,11.5671182 C9.947652,13.1865845 9.13793103,15.1354566 9.13793103,17.4137931 C9.13793103,19.6921296 9.947652,21.6410018 11.5671182,23.260468 C13.1865845,24.8799342 15.1354566,25.6896552 17.4137931,25.6896552 C19.6921296,25.6896552 21.6410018,24.8799342 23.260468,23.260468 C24.8799342,21.6410018 25.6896552,19.6921296 25.6896552,17.4137931 Z M35,32.6923077 C35,33.3173108 34.7716369,33.8581708 34.3149038,34.3149038 C33.8581708,34.7716369 33.3173108,35 32.6923077,35 C32.043266,35 31.502406,34.7716369 31.0697115,34.3149038 L24.8858173,28.1490385 C22.7343642,29.6394305 20.3365517,30.3846154 17.6923077,30.3846154 C15.9735491,30.3846154 14.3299357,30.0510851 12.7614183,29.3840144 C11.1929008,28.7169438 9.84075087,27.8155105 8.70492788,26.6796875 C7.5691049,25.5438645 6.6676716,24.1917146 6.00060096,22.6231971 C5.33353032,21.0546797 5,19.4110663 5,17.6923077 C5,15.9735491 5.33353032,14.3299357 6.00060096,12.7614183 C6.6676716,11.1929008 7.5691049,9.84075087 8.70492788,8.70492788 C9.84075087,7.5691049 11.1929008,6.6676716 12.7614183,6.00060096 C14.3299357,5.33353032 15.9735491,5 17.6923077,5 C19.4110663,5 21.0546797,5.33353032 22.6231971,6.00060096 C24.1917146,6.6676716 25.5438645,7.5691049 26.6796875,8.70492788 C27.8155105,9.84075087 28.7169438,11.1929008 29.3840144,12.7614183 C30.0510851,14.3299357 30.3846154,15.9735491 30.3846154,17.6923077 C30.3846154,20.3365517 29.6394305,22.7343642 28.1490385,24.8858173 L34.3329327,31.0697115 C34.7776465,31.5144253 35,32.0552853 35,32.6923077 Z" id=""></path>
        </g>
    </g>
</svg>