<?xml version="1.0" encoding="UTF-8" standalone="no"?>
<svg width="60px" height="60px" viewBox="0 0 60 60" version="1.1" xmlns="http://www.w3.org/2000/svg" xmlns:xlink="http://www.w3.org/1999/xlink">
    <!-- Generator: Sketch 48.2 (47327) - http://www.bohemiancoding.com/sketch -->
    <title>Logo/EiE</title>
    <desc>Created with Sketch.</desc>
    <defs></defs>
    <g id="Symbols" stroke="none" stroke-width="1" fill="none" fill-rule="evenodd">
        <g id="Logo/EiE" fill-rule="nonzero">
            <g id="Logo-EiE">
                <rect id="Rectangle-path" fill="#EE3124" x="0" y="0" width="59.9319728" height="59.9319728"></rect>
                <path d="M6.10544218,40.8163265 C6.04573174,41.3788077 6.25098097,41.9370717 6.66082117,42.3269197 C7.07066137,42.7167677 7.63848402,42.8938648 8.19727891,42.8061224 L21.5816327,42.8061224 C22.1404275,42.8938648 22.7082502,42.7167677 23.1180904,42.3269197 C23.5279306,41.9370717 23.7331798,41.3788077 23.6734694,40.8163265 L23.6734694,39.3707483 C23.7331798,38.8082671 23.5279306,38.2500031 23.1180904,37.8601551 C22.7082502,37.4703071 22.1404275,37.29321 21.5816327,37.3809524 L12.755102,37.3809524 L12.755102,32.4319728 L18.962585,32.4319728 C19.5213799,32.5197151 20.0892026,32.3426181 20.4990428,31.9527701 C20.908883,31.5629221 21.1141322,31.0046581 21.0544218,30.4421769 L21.0544218,28.9115646 C21.1141322,28.3490834 20.908883,27.7908194 20.4990428,27.4009714 C20.0892026,27.0111234 19.5213799,26.8340264 18.962585,26.9217687 L12.755102,26.9217687 L12.755102,22.2789116 L21.0544218,22.2789116 C21.6132167,22.3666539 22.1810393,22.1895568 22.5908795,21.7997088 C23.0007197,21.4098608 23.2059689,20.8515969 23.1462585,20.2891156 L23.1462585,18.8435374 C23.211741,18.2782728 23.0090294,17.7149206 22.5983943,17.320978 C22.1877591,16.9270353 21.6164841,16.7478636 21.0544218,16.8367347 L8.19727891,16.8367347 C7.63848402,16.7489924 7.07066137,16.9260894 6.66082117,17.3159374 C6.25098097,17.7057854 6.04573174,18.2640494 6.10544218,18.8265306 L6.10544218,40.8163265 Z" id="Shape" fill="#FFFFFF"></path>
                <path d="M26.6496599,40.8163265 C26.6496599,42.0408163 27.3809524,42.6870748 28.7414966,42.6870748 L31.1394558,42.6870748 C32.5,42.6870748 33.2312925,42.0408163 33.2312925,40.8163265 L33.2312925,27.1258503 C33.2312925,25.9013605 32.5,25.255102 31.1394558,25.255102 L28.7414966,25.255102 C27.3809524,25.255102 26.6496599,25.9013605 26.6496599,27.1258503 L26.6496599,40.8163265 Z" id="Shape" fill="#FFFFFF"></path>
                <path d="M37.6530612,40.8163265 C37.5933508,41.3788077 37.7986,41.9370717 38.2084402,42.3269197 C38.6182804,42.7167677 39.1861031,42.8938648 39.744898,42.8061224 L53.1292517,42.8061224 C53.6880466,42.8938648 54.2558692,42.7167677 54.6657094,42.3269197 C55.0755496,41.9370717 55.2807989,41.3788077 55.2210884,40.8163265 L55.2210884,39.3707483 C55.2807989,38.8082671 55.0755496,38.2500031 54.6657094,37.8601551 C54.2558692,37.4703071 53.6880466,37.29321 53.1292517,37.3809524 L44.3027211,37.3809524 L44.3027211,32.4319728 L50.5102041,32.4319728 C51.068999,32.5197151 51.6368216,32.3426181 52.0466618,31.9527701 C52.456502,31.5629221 52.6617513,31.0046581 52.6020408,30.4421769 L52.6020408,28.9115646 C52.6617513,28.3490834 52.456502,27.7908194 52.0466618,27.4009714 C51.6368216,27.0111234 51.068999,26.8340264 50.5102041,26.9217687 L44.3027211,26.9217687 L44.3027211,22.2789116 L52.6020408,22.2789116 C53.1608357,22.3666539 53.7286584,22.1895568 54.1384986,21.7997088 C54.5483388,21.4098608 54.753588,20.8515969 54.6938776,20.2891156 L54.6938776,18.8435374 C54.7593601,18.2782728 54.5566485,17.7149206 54.1460133,17.320978 C53.7353781,16.9270353 53.1641031,16.7478636 52.6020408,16.8367347 L39.744898,16.8367347 C39.1861031,16.7489924 38.6182804,16.9260894 38.2084402,17.3159374 C37.7986,17.7057854 37.5933508,18.2640494 37.6530612,18.8265306 L37.6530612,40.8163265 Z" id="Shape" fill="#FFFFFF"></path>
                <path d="M29.9659864,23.2993197 C31.7131959,23.1974551 33.0577834,21.7164347 32.9908405,19.967539 C32.9238977,18.2186433 31.4700317,16.8447399 29.7201477,16.8767343 C27.9702637,16.9087286 26.5675928,18.3348601 26.5646259,20.085034 C26.5868372,20.9631976 26.9583326,21.7962468 27.5967961,22.3995948 C28.2352597,23.0029429 29.087971,23.326769 29.9659864,23.2993197" id="Shape" fill="#FFFFFF"></path>
            </g>
        </g>
    </g>
</svg>