<?xml version="1.0" encoding="UTF-8" standalone="no"?>
<svg width="60px" height="60px" viewBox="0 0 60 60" version="1.1" xmlns="http://www.w3.org/2000/svg" xmlns:xlink="http://www.w3.org/1999/xlink">
    <!-- Generator: Sketch 48.2 (47327) - http://www.bohemiancoding.com/sketch -->
    <title>Logo/MoS</title>
    <desc>Created with Sketch.</desc>
    <defs></defs>
    <g id="Symbols" stroke="none" stroke-width="1" fill="none" fill-rule="evenodd">
        <g id="Logo/MoS" fill-rule="nonzero">
            <g id="Logo-MoS">
                <path d="M30.8843537,17.7397865 C28.0954815,17.7397716 25.4213281,18.8690109 23.4524912,20.8781073 C21.4836543,22.8872037 20.3821164,25.6108624 20.3911565,28.4475524 C20.3867176,30.5125079 20.9780341,32.5334081 22.0918367,34.2598454 C6.58163265,47.3375046 5.17006803,59.0312845 5,60 L15.3741497,60 C14.4557823,49.8976813 18.9285714,42.701509 24.8979592,37.1832904 C28.1014565,39.4467473 32.2749267,39.716018 35.7339248,37.8824228 C39.1929229,36.0488275 41.3665645,32.414989 41.377551,28.4475524 C41.3736002,27.6134751 41.2708181,26.782923 41.0714286,25.9738682 C46.8727295,22.3603304 53.2961304,19.9007024 60,18.7258005 L60,13 C52.8486063,15.3711965 45.9399109,18.4416085 39.3707483,22.1682002 C37.4033211,19.3847088 34.237732,17.7361288 30.8673469,17.7397865" id="Shape" fill="#FFFFFF"></path>
                <path d="M41.2634671,29.4472362 C41.2252837,33.2796775 39.0257217,36.7767234 35.548893,38.5327398 C32.0720642,40.2887562 27.8889511,40.0153612 24.6809516,37.8224456 C18.6804744,43.2495812 14.1843903,50.201005 15.124636,60 L60,60 L60,20 C53.2611062,21.1372828 46.8041774,23.519009 40.9728457,27.0184255 C41.1702587,27.8134198 41.2678548,28.6290598 41.2634671,29.4472362" id="Shape" fill="#EE3124"></path>
                <path d="M0,0 L0,60 L4.91914894,60 C5.0212766,59.0638298 6.50212766,47.5404255 22.0255319,34.6553191 C20.9066602,32.9521367 20.3146162,30.9569485 20.3234043,28.9191489 C20.3271604,24.3664776 23.2638073,20.334683 27.5958571,18.9346204 C31.9279069,17.5345577 36.6686946,19.0851044 39.3361702,22.7744681 C45.9166912,19.107263 52.8369453,16.0860648 60,13.7531915 L60,0 L0,0 Z" id="Shape" fill="#EE3124"></path>
            </g>
        </g>
    </g>
</svg>